<svg xmlns="http://www.w3.org/2000/svg" width="40" height="40" fill="white" viewBox="0 0 24 24">
  <path d="M12 .5C5.37.5 0 5.87 0 12.5c0 5.28 3.438 9.75 8.205 11.325.6.113.82-.26.82-.577v-2.234c-3.338.726-4.033-1.416-4.033-1.416-.546-1.385-1.333-1.753-1.333-1.753-1.09-.745.082-.73.082-.73 1.205.084 1.838 1.237 1.838 1.237 1.07 1.834 2.807 1.304 3.492.997.108-.775.42-1.305.763-1.605-2.665-.305-5.466-1.332-5.466-5.93 0-1.31.47-2.382 1.236-3.222-.124-.303-.536-1.527.116-3.176 0 0 1.008-.322 3.3 1.23.957-.266 1.983-.399 3.003-.403 1.02.004 2.047.137 3.006.403 2.29-1.552 3.297-1.23 3.297-1.23.653 1.649.241 2.873.118 3.176.77.84 1.234 1.912 1.234 3.222 0 4.61-2.805 5.623-5.476 5.92.43.372.823 1.102.823 2.222v3.293c0 .32.218.694.825.576C20.565 22.245 24 17.78 24 12.5 24 5.87 18.63.5 12 .5z"></path>
</svg>
